<svg width="18" height="19" viewBox="0 0 18 19" fill="none" xmlns="http://www.w3.org/2000/svg">
<path d="M8.74251 10.3129C10.1679 10.3129 11.3234 9.27048 11.3234 7.98458C11.3234 6.69868 10.1679 5.65625 8.74251 5.65625C7.31712 5.65625 6.16162 6.69868 6.16162 7.98458C6.16162 9.27048 7.31712 10.3129 8.74251 10.3129Z" stroke="white" stroke-width="1.5" stroke-linecap="round" stroke-linejoin="round"/>
<path d="M16.4853 7.98498C16.4853 13.4177 8.74267 18.0744 8.74267 18.0744C8.74267 18.0744 1 13.4177 1 7.98498C1 6.13245 1.81574 4.35579 3.26778 3.04585C4.71981 1.73592 6.68919 1 8.74267 1C10.7962 1 12.7655 1.73592 14.2176 3.04585C15.6696 4.35579 16.4853 6.13245 16.4853 7.98498Z" stroke="white" stroke-width="1.5" stroke-linecap="round" stroke-linejoin="round"/>
</svg>
