<svg width="323" height="34" viewBox="0 0 323 34" fill="none" xmlns="http://www.w3.org/2000/svg">
<path d="M24.1403 19.1669C23.613 16.407 22.0879 14.5358 19.2669 11.0774C17.6494 9.09552 13.6161 3.69498 11.0365 0.174133L11.0871 0.977682C11.2271 3.16402 12.0195 5.27369 13.3719 7.04263C15.0221 9.20057 16.4013 10.8929 17.575 12.3296C20.3423 15.7227 21.6083 17.2758 22.0372 19.5303C23.1394 25.3312 18.7903 31.0213 12.6093 31.2684C6.88105 31.4983 2.14772 27.1228 2.14474 21.7138C2.14474 20.3282 2.51411 18.9397 3.29754 17.4405C3.80096 16.4751 3.42265 15.2968 2.46943 14.7118C0.786405 17.2048 0.00297881 19.4281 0 21.7081C0 21.7081 0 21.7081 0 21.711C0 21.711 0 21.711 0 21.7138C0.00297881 28.5511 6.2406 34.0283 13.5774 33.2417C20.664 32.4836 25.4182 25.848 24.1403 19.1669Z" fill="url(#paint0_linear_238_181)"/>
<path d="M9.37459 27.1598C10.2921 27.6028 11.281 27.8242 12.2789 27.8242C12.9551 27.8242 13.6313 27.722 14.2926 27.5147C16.6548 26.7765 18.2693 24.8542 18.6446 22.6622L19.3834 23.3579C20.2145 22.5543 19.9255 20.9955 19.0825 20.2033L14.9628 16.3332C14.1288 17.1367 14.1347 18.4287 14.9718 19.2265L16.4433 20.6235C17.1165 23.0228 15.3918 25.5584 12.5768 25.7742C11.0129 25.8934 9.45204 25.1325 8.63584 23.8548C7.44432 21.9893 7.97752 19.7745 9.5265 18.5337C10.295 17.9204 10.6674 16.9692 10.3546 16.0635L10.2772 15.842C6.8992 16.8982 5.05532 20.3737 6.16045 23.5907C6.69962 25.1495 7.8405 26.4187 9.37459 27.1598Z" fill="url(#paint1_linear_238_181)"/>
<path d="M52.3364 31.1982C50.4251 31.1982 49.4147 30.1211 49.2564 29.0439C49.0494 27.5762 48.8547 26.4398 48.6234 25.4929H39.4564C38.9816 27.3868 38.5798 29.3043 38.2511 31.1982H36.4737C34.9642 31.1982 34.3555 30.417 34.3555 29.0439C34.3555 25.8125 38.6529 12.6737 42.1712 8.86224H44.0459C45.8842 8.86224 47.126 9.8447 47.7712 10.9218C49.8529 14.5439 53.2982 24.1553 54.2112 31.1982H52.3364ZM44.0216 12.9814C42.6825 15.3014 41.2338 18.8525 40.4668 21.9419H47.5764C46.7973 18.817 45.2268 15.0647 44.0216 12.9814Z" fill="#EC681C"/>
<path d="M58.9347 31.5889C56.4147 31.5889 54.6738 30.3816 54.6738 29.0085V26.9607H54.8443C55.5869 27.3868 56.926 27.6828 58.3017 27.6828C60.3834 27.6828 61.1504 26.8068 61.1504 25.0077V8.87415H62.6965C64.7417 8.87415 65.7765 9.9158 65.7765 11.9044V25.2089C65.7765 28.8546 63.6582 31.5889 58.9347 31.5889Z" fill="#EC681C"/>
<path d="M88.7358 12.5909H81.6628V18.1305H89.9411V19.4681C89.9411 20.9003 88.7724 21.6815 87.7254 21.6815H81.821C81.821 28.1681 81.821 31.1983 81.821 31.1983H79.9097C78.2297 31.1983 77.2314 30.346 77.2314 28.5942V12.3305C77.2314 9.56069 78.3758 8.87415 81.0541 8.87415H91.3532C91.3532 9.00435 91.3532 10.2709 91.3532 10.2709C91.3532 11.3125 90.5498 12.5909 88.7358 12.5909Z" fill="#EC681C"/>
<path d="M96.5774 31.1983C95.2383 31.1983 93.7896 30.1922 93.7896 28.2273V8.87415H95.8713C97.04 8.87415 98.3183 9.8211 98.3183 11.2533V31.2101H96.5774V31.1983Z" fill="#EC681C"/>
<path d="M117.966 31.364C116.493 31.364 115.215 30.8077 114.618 29.3754L112.914 25.3272C111.879 22.877 110.905 22.7231 109.7 22.5219C108.69 22.3562 107.886 22.226 107.424 22.226V31.1864H105.926C103.881 31.1864 102.81 29.9791 102.81 28.1917V9.47781C103.783 9.12271 106.997 8.66107 108.714 8.66107H111.258C115.824 8.66107 118.806 11.3362 118.806 15.0884C118.806 18.1186 116.761 20.628 114.083 21.0187C115.324 21.504 116.359 22.8415 116.931 24.1436L118.782 28.3219C119.354 29.624 119.926 30.2395 120.194 30.6419C119.646 31.1983 119.244 31.364 117.966 31.364ZM109.457 12.5198C109.018 12.5198 107.91 12.6145 107.411 12.7448V18.6513C108.422 18.8525 109.457 18.8525 110.698 18.8525C112.573 18.8525 114.156 17.8109 114.156 15.8223C114.156 13.1117 112.744 12.5317 110.735 12.5317H109.457V12.5198Z" fill="#EC681C"/>
<path d="M138.856 28.5941C138.82 30.3815 137.883 31.3639 133.865 31.3639H131.418C125.818 31.3639 122.872 28.3692 122.872 22.6639V18.521C122.872 16.4023 123.043 14.0231 123.31 12.2239C123.676 9.54877 124.954 8.86224 126.829 8.86224H138.832V10.3655C138.832 11.928 137.858 12.7092 135.752 12.7092H127.876C127.644 14.3427 127.535 16.5206 127.535 17.9292H136.385V19.5272C136.385 20.9949 135.448 21.5868 133.597 21.5868H127.535V22.8888C127.535 26.7713 128.837 27.517 132.392 27.517H133.865C135.545 27.517 137.25 27.3868 138.893 27.0317L138.856 28.5941Z" fill="#EC681C"/>
<path d="M156.084 31.5889C151.457 31.5889 149.071 29.8252 149.071 27.1856V25.197H149.169C150.715 26.5346 152.784 27.6117 155.572 27.6117C159.03 27.6117 160.138 26.4754 160.138 24.6762C160.138 23.1493 159.529 22.4627 154.671 21.4448C150.788 20.628 148.572 18.7341 148.572 15.7039C148.572 11.9872 151.786 8.45984 157.191 8.45984C162.56 8.45984 164.094 10.6733 164.094 12.5317V14.5913H163.96C162.548 13.1235 160.503 12.4015 157.995 12.4015C154.44 12.4015 153.138 13.5378 153.138 15.266C153.138 16.6035 154.209 17.4203 158.506 18.2962C162.694 19.1484 164.739 21.2672 164.739 24.2619C164.727 28.6889 161.647 31.5889 156.084 31.5889Z" fill="#EC681C"/>
<path d="M178.142 31.589C172.335 31.589 167.648 27.0555 167.648 20.3796C167.648 13.4314 171.666 8.48364 178.642 8.48364C184.205 8.48364 189.135 12.6265 189.135 19.693C189.135 26.4755 185.142 31.589 178.142 31.589ZM178.203 12.4253C174.819 12.4253 172.372 15.1359 172.372 19.693C172.372 25.0669 174.381 27.7184 178.568 27.7184C182.123 27.7184 184.4 25.2445 184.4 20.3204C184.412 15.0649 182.099 12.4253 178.203 12.4253Z" fill="#EC681C"/>
<path d="M203.05 31.3995H201.273C195.88 31.3995 192.885 28.464 192.885 23.1138V8.87415H194.76C196.634 8.87415 197.608 9.91578 197.608 12.1293V22.8179C197.608 26.2032 198.412 27.446 201.869 27.446H203.038C205.217 27.446 206.994 26.9607 207.834 26.6293V28.1562C207.847 30.1211 206.836 31.3995 203.05 31.3995Z" fill="#EC681C"/>
<path d="M218.839 31.5889C213.275 31.5889 209.684 27.9669 209.684 21.5158V8.87415H211.461C212.898 8.87415 214.31 9.88027 214.31 12.9815V21.2317C214.31 25.4101 215.747 27.4224 219.302 27.4224C222.552 27.4224 223.891 25.3391 223.891 21.3974V8.87415H225.632C227.373 8.87415 228.517 10.117 228.517 12.8513V21.137C228.529 27.6828 225.401 31.5889 218.839 31.5889Z" fill="#EC681C"/>
<path d="M245.853 12.7802H241.629V31.1982H239.79C238.183 31.1982 237.003 30.1921 237.003 28.2035V12.7802H230.392V11.3125C230.392 10.2353 231.293 8.86224 233.18 8.86224H248.604V10.259C248.604 11.348 247.363 12.7802 245.853 12.7802Z" fill="#EC681C"/>
<path d="M253.901 31.1983C252.561 31.1983 251.113 30.1922 251.113 28.2273V8.87415H253.195C254.363 8.87415 255.642 9.8211 255.642 11.2533V31.2101H253.901V31.1983Z" fill="#EC681C"/>
<path d="M269.861 31.589C264.066 31.589 259.367 27.0555 259.367 20.3796C259.367 13.4314 263.384 8.48364 270.36 8.48364C275.923 8.48364 280.854 12.6265 280.854 19.693C280.854 26.4755 276.861 31.589 269.861 31.589ZM269.922 12.4253C266.537 12.4253 264.09 15.1359 264.09 19.693C264.09 25.0669 266.099 27.7184 270.299 27.7184C273.854 27.7184 276.13 25.2445 276.13 20.3204C276.13 15.0649 273.817 12.4253 269.922 12.4253Z" fill="#EC681C"/>
<path d="M301.331 31.1983C299.553 31.1983 297.605 30.6775 294.757 25.2917L290.569 17.373C289.936 16.1301 289.424 15.2897 289.023 14.7689V31.1983H287.209C285.87 31.1983 284.421 30.2158 284.421 28.2628V8.87415H286.697C289.717 8.87415 291.664 10.4366 293.198 13.4431L297.228 21.2672C297.703 22.1787 298.238 23.5162 298.567 24.2619V8.87415H300.612C301.781 8.87415 303.132 10.0105 303.132 11.4546V31.2101H301.331V31.1983Z" fill="#EC681C"/>
<path d="M314.344 31.5889C309.718 31.5889 307.332 29.8252 307.332 27.1856V25.197H307.43C308.976 26.5346 311.045 27.6117 313.833 27.6117C317.29 27.6117 318.398 26.4754 318.398 24.6762C318.398 23.1493 317.79 22.4627 312.932 21.4448C309.049 20.628 306.833 18.7341 306.833 15.7039C306.833 11.9872 310.047 8.45984 315.452 8.45984C320.821 8.45984 322.355 10.6733 322.355 12.5317V14.5913H322.221C320.809 13.1235 318.764 12.4015 316.256 12.4015C312.701 12.4015 311.398 13.5378 311.398 15.266C311.398 16.6035 312.47 17.4203 316.767 18.2962C320.955 19.1484 323 21.2672 323 24.2619C322.988 28.6889 319.908 31.5889 314.344 31.5889Z" fill="#EC681C"/>
<defs>
<linearGradient id="paint0_linear_238_181" x1="11.3971" y1="4.42366" x2="13.0538" y2="44.4712" gradientUnits="userSpaceOnUse">
<stop stop-color="#F59B1A"/>
<stop offset="1" stop-color="#E52421"/>
</linearGradient>
<linearGradient id="paint1_linear_238_181" x1="12.0638" y1="4.39615" x2="13.7205" y2="44.4437" gradientUnits="userSpaceOnUse">
<stop stop-color="#F59B1A"/>
<stop offset="1" stop-color="#E52421"/>
</linearGradient>
</defs>
</svg>
