<svg width="19" height="17" viewBox="0 0 19 17" fill="none" xmlns="http://www.w3.org/2000/svg">
<path d="M17.5172 12.2304V14.4885C17.5181 14.6981 17.4707 14.9056 17.3781 15.0977C17.2854 15.2898 17.1495 15.4622 16.9791 15.6039C16.8086 15.7456 16.6074 15.8535 16.3883 15.9207C16.1692 15.9878 15.937 16.0128 15.7067 15.9939C13.1511 15.7422 10.6962 14.9508 8.53942 13.6831C6.53278 12.5274 4.8315 10.9855 3.55639 9.16689C2.15282 7.20324 1.27935 4.96756 1.00674 2.64096C0.985987 2.43282 1.01328 2.22303 1.08689 2.02497C1.16049 1.82691 1.27879 1.6449 1.43426 1.49055C1.58972 1.33619 1.77895 1.21287 1.98989 1.12843C2.20082 1.04398 2.42885 1.00027 2.65945 1.00007H5.15096C5.55401 0.996478 5.94475 1.12583 6.25035 1.36403C6.55595 1.60222 6.75556 1.93301 6.81197 2.29472C6.91713 3.01736 7.11216 3.72691 7.39333 4.40981C7.50507 4.67922 7.52925 4.97201 7.46301 5.2535C7.39677 5.53498 7.24289 5.79336 7.0196 5.99801L5.96486 6.95394C7.14713 8.83837 8.86868 10.3986 10.9479 11.4702L12.0026 10.5142C12.2284 10.3118 12.5135 10.1724 12.8241 10.1123C13.1347 10.0523 13.4577 10.0742 13.755 10.1755C14.5085 10.4303 15.2914 10.6071 16.0887 10.7024C16.4921 10.754 16.8606 10.9381 17.124 11.2199C17.3873 11.5016 17.5273 11.8612 17.5172 12.2304Z" stroke="white" stroke-width="1.5" stroke-linecap="round" stroke-linejoin="round"/>
</svg>
