<svg width="19" height="20" viewBox="0 0 19 20" fill="none" xmlns="http://www.w3.org/2000/svg">
<path d="M17.3345 5.93581C16.9049 4.97255 16.2881 4.10773 15.505 3.36244C14.7219 2.62418 13.814 2.0406 12.8022 1.6328C11.7557 1.21093 10.6469 1 9.50339 1C8.35991 1 7.25106 1.21093 6.2046 1.6328C5.19279 2.0406 4.28493 2.61714 3.50182 3.36244C2.7187 4.10773 2.10192 4.97255 1.67224 5.93581C1.22871 6.93422 1 8.00294 1 9.09979C1 11.0193 1.70688 12.8614 3.00283 14.3239L2.3098 18.1558L5.99669 16.4894C7.0986 16.9675 8.26981 17.2066 9.49645 17.2066C10.6399 17.2066 11.7488 16.9957 12.7952 16.5738C13.8071 16.166 14.7149 15.5895 15.498 14.8442C16.2811 14.0989 16.8979 13.2341 17.3276 12.2708C17.7711 11.2724 17.9998 10.2037 17.9998 9.10682C18.0068 8.00294 17.7781 6.94125 17.3345 5.93581Z" stroke="white" stroke-width="1.5"/>
<path d="M13.9997 10.9895V12.1939C14.0002 12.3057 13.9744 12.4163 13.9239 12.5188C13.8734 12.6212 13.7994 12.7132 13.7065 12.7887C13.6137 12.8643 13.504 12.9219 13.3846 12.9577C13.2653 12.9935 13.1388 13.0068 13.0132 12.9967C11.6208 12.8625 10.2832 12.4404 9.10801 11.7643C8.01465 11.148 7.08767 10.3256 6.3929 9.35567C5.62814 8.3084 5.15221 7.11603 5.00367 5.87518C4.99236 5.76417 5.00724 5.65228 5.04734 5.54665C5.08745 5.44102 5.1519 5.34395 5.23661 5.26163C5.32132 5.1793 5.42443 5.11353 5.53936 5.06849C5.65429 5.02346 5.77854 5.00014 5.90418 5.00004H7.26174C7.48135 4.99812 7.69425 5.06711 7.86076 5.19415C8.02727 5.32119 8.13603 5.4976 8.16677 5.69052C8.22407 6.07593 8.33033 6.45435 8.48353 6.81857C8.54442 6.96225 8.55759 7.11841 8.5215 7.26853C8.48541 7.41866 8.40157 7.55646 8.2799 7.66561L7.7052 8.17544C8.34939 9.18046 9.28741 10.0126 10.4203 10.5841L10.995 10.0743C11.118 9.96632 11.2734 9.89194 11.4426 9.85992C11.6118 9.8279 11.7879 9.83959 11.9498 9.8936C12.3604 10.0295 12.7869 10.1238 13.2214 10.1746C13.4412 10.2021 13.642 10.3003 13.7855 10.4506C13.929 10.6009 14.0052 10.7927 13.9997 10.9895Z" stroke="white" stroke-width="1.2" stroke-linecap="round" stroke-linejoin="round"/>
</svg>
